# AST/ASF file generated using VICON BodyLanguage
# -----------------------------------------------
:version 1.10
:name VICON
:units
  mass 1.0
  length 0.45
  angle deg
:documentation
   .ast/.asf automatically generated from VICON data using
   VICON BodyBuilder and BodyLanguage model FoxedUp or BRILLIANT.MOD
:root
   order TX TY TZ RX RY RZ
   axis XYZ
   position 0 0 0  
   orientation 0 0 0 
:bonedata
  begin
     id 1 
     name lhipjoint
     direction 0.677091 -0.635792 0.370561 
     length 2.74323 
     axis 0 0 0  XYZ
  end
  begin
     id 2 
     name lfemur
     direction 0.34202 -0.939693 0  
     length 7.44995  
     axis 0 0 20  XYZ
    dof rx ry rz
    limits (-160.0 20.0)
           (-70.0 70.0)
           (-60.0 70.0)
  end
  begin
     id 3 
     name ltibia
     direction 0.34202 -0.939693 0   
     length 7.34467   
     axis 0 0 20   XYZ
    dof rx
    limits (-10.0 170.0)
  end
  begin
     id 4 
     name lfoot
     direction 0.101953 -0.280114 0.954537   
     length 1.72105   
     axis -90 7.62852e-016 20   XYZ
    dof rx rz
    limits (-45.0 90.0)
           (-70.0 20.0)
  end
  begin
     id 5 
     name ltoes
     direction 1.53537e-011 -4.21915e-011 1   
     length 0.865872   
     axis -90 7.62852e-016 20   XYZ
    dof rx
    limits (-90.0 20.0)
  end
  begin
     id 6 
     name rhipjoint
     direction -0.695735 -0.620586 0.361699   
     length 2.81045  
     axis 0 0 0  XYZ 
  end
  begin
     id 7 
     name rfemur
     direction -0.34202 -0.939693 0   
     length 7.29387   
     axis 0 0 -20   XYZ
    dof rx ry rz
    limits (-160.0 20.0)
           (-70.0 70.0)
           (-70.0 60.0)
  end
  begin
     id 8 
     name rtibia
     direction -0.34202 -0.939693 0   
     length 7.44935   
     axis 0 0 -20   XYZ
    dof rx
    limits (-10.0 170.0)
 end
 begin
     id 9 
     name rfoot
     direction -0.104163 -0.286184 0.952496   
     length 1.77731  
     axis -90 -7.62852e-016 -20   XYZ
    dof rx rz
    limits (-45.0 90.0)
           (-20.0 70.0)
  end
  begin
     id 10 
     name rtoes
     direction -1.5355e-011 -4.21888e-011 1   
     length 0.892424   
     axis -90 -7.62852e-016 -20   XYZ
    dof rx
    limits (-90.0 20.0)
  end
  begin
     id 11 
     name lowerback
     direction 0.0100202 0.997226 -0.0737589   
     length 2.16892   
     axis 0 0 0   XYZ
    dof rx ry rz
    limits (-20.0 45.0)
           (-30.0 30.0)
           (-30.0 30.0)
  end
  begin
     id 12 
     name upperback
     direction 0.00432398 0.999988 -0.00215019   
     length 2.17326   
     axis 0 0 0   XYZ
    dof rx ry rz
    limits (-20.0 45.0)
           (-30.0 30.0)
           (-30.0 30.0)
  end
  begin
     id 13 
     name thorax
     direction -0.00195047 0.999485 0.0320434   
     length 2.18139   
     axis 0 0 0   XYZ
    dof rx ry rz
    limits (-20.0 45.0)
           (-30.0 30.0)
           (-30.0 30.0)
  end
  begin
     id 14 
     name lowerneck
     direction 0.00782762 0.986241 0.165128   
     length 1.88415   
     axis 0 0 0   XYZ
    dof rx ry rz
    limits (-20.0 45.0)
           (-30.0 30.0)
           (-30.0 30.0)
  end
  begin
     id 15 
     name upperneck
     direction 0.00988667 0.981098 -0.193258   
     length 1.9242   
     axis 0 0 0   XYZ
    dof rx ry rz
    limits (-20.0 45.0)
           (-30.0 30.0)
           (-30.0 30.0)
  end
  begin
     id 16
     name head
     direction 0.00252199 0.996513 -0.0833958  
     length 1.93887  
     axis 0 0 0   XYZ
    dof rx ry rz
    limits (-20.0 45.0)
           (-30.0 30.0)
           (-30.0 30.0)
  end
  begin
     id 17 
     name lclavicle
     direction 0.929492 0.368193 -0.0218667  
     length 3.5955  
     axis 0 0 0   XYZ
    dof ry rz
    limits (-20.0 10.0)
           (0.0 20.0)
  end
  begin
     id 18 
     name lhumerus
     direction 1 -4.48972e-011 1.41911e-027   
     length 5.2795   
     axis 180 -30 -90   XYZ
    dof rx ry rz
    limits (-60.0 90.0)
           (-90.0 90.0)
           (-90.0 90.0)
  end
  begin
     id 19
     name lradius
     direction 1 -4.48963e-011 7.05772e-027   
     length 3.53504   
     axis 180 -30 -90   XYZ
    dof rx
    limits (-10.0 170.0)
  end
  begin
     id 20
     name lwrist
     direction 1 -4.48957e-011 9.54866e-027   
     length 1.76752   
     axis -7.69462e-015 90 90   XYZ
    dof ry
    limits (-180.0 0.0)
 end
  begin
     id 21 
     name lhand
     direction 1 -4.48979e-011 1.90973e-026   
     length 0.667948   
     axis -1.21857e-014 90 90   XYZ
    dof rx rz
    limits (-90.0 90.0)
           (-45.0 45.0)
  end
  begin
     id 22 
     name lfingers
     direction 1 -4.48987e-011 3.81946e-026   
     length 0.538517   
     axis -2.43714e-014 90 90   XYZ
    dof rx
    limits (0.0 90.0)
  end
  begin
     id 23
     name lthumb
     direction 0.707107 -6.34962e-011 0.707107   
     length 0.773206   
     axis -90 45 2.85299e-015   XYZ
    dof rx rz
    limits (-45.0 45.0)
           (-45.0 45.0)
  end
  begin
     id 24 
     name rclavicle
     direction -0.898763 0.414256 -0.143584   
     length 3.5176  
     axis 0 0 0   XYZ 
    dof ry rz
    limits (-10.0 20.0)
           (-20.0 0.0)
  end
  begin
     id 25 
     name rhumerus
     direction -1 -4.48971e-011 1.129e-027  
     length 5.25035   
     axis 180 30 90   XYZ
    dof rx ry rz
    limits (-90.0 60.0)
           (-90.0 90.0)
           (-90.0 90.0)
  end
  begin
     id 26 
     name rradius
     direction -1 -4.48955e-011 6.34664e-027   
     length 3.58884   
     axis 180 30 90   XYZ
    dof rx
    limits (-10.0 170.0)
  end
  begin
     id 27 
     name rwrist
     direction -1 -4.48966e-011 9.54866e-027   
     length 1.79442   
     axis -7.69462e-015 -90 -90   XYZ
    dof ry
    limits (-180.0 0.0)
  end
  begin
     id 28
     name rhand
     direction -1 -4.48973e-011 1.90973e-026   
     length 0.779235   
     axis -1.21857e-014 -90 -90   XYZ
    dof rx rz
    limits (-90.0 90.0)
           (-45.0 45.0)
  end
  begin
     id 29
     name rfingers
     direction -1 -4.48984e-011 3.81946e-026   
     length 0.62824   
     axis -2.43714e-014 -90 -90   XYZ
    dof rx
    limits (0.0 90.0)
  end
  begin
     id 30
     name rthumb
     direction -0.707107 -6.34968e-011 0.707107   
     length 0.90203   
     axis -90 -45 -2.85299e-015   XYZ
    dof rx rz
    limits (-45.0 45.0)
           (-45.0 45.0)
  end
:hierarchy
  begin
    root lhipjoint rhipjoint lowerback
    lhipjoint lfemur
    lfemur ltibia
    ltibia lfoot
    lfoot ltoes
    rhipjoint rfemur
    rfemur rtibia
    rtibia rfoot
    rfoot rtoes
    lowerback upperback
    upperback thorax
    thorax lowerneck lclavicle rclavicle
    lowerneck upperneck
    upperneck head
    lclavicle lhumerus
    lhumerus lradius
    lradius lwrist
    lwrist lhand lthumb
    lhand lfingers
    rclavicle rhumerus
    rhumerus rradius
    rradius rwrist
    rwrist rhand rthumb
    rhand rfingers
  end

#!OML:ASF I:\Random Stuff\random\construction\7_22_03\Session 2\subj1.ASF
:FULLY-SPECIFIED
:DEGREES
103
root -9.46724 17.5417 3.04177 -1.55871 71.3425 -8.15695
lowerback 4.27915 1.663 5.6409
upperback -0.631258 2.60929 2.07912
thorax -2.90183 1.23484 -1.18566
lowerneck -22.9754 0.543714 1.39158
upperneck 36.6774 -0.161956 2.90705
head 17.3414 0.862345 1.13118
rclavicle -5.55603e-014 -1.11319e-014
rhumerus -41.361 -17.7098 -67.3459
rradius 20.9034
rwrist 8.40531
rhand -17.1778 19.4591
rfingers 7.12502
rthumb 9.06375 -10.3261
lclavicle -5.55603e-014 -1.11319e-014
lhumerus -35.7478 16.0311 73.8282
lradius 34.0859
lwrist 38.7725
lhand -17.4666 61.107
lfingers 7.12502
lthumb -171.215 89.0959
rfemur -5.32094 14.4287 28.4842
rtibia 13.8466
rfoot -12.1492 -29.8743
rtoes 1.01123
lfemur -23.9354 -1.31666 -10.0008
ltibia 39.1562
lfoot -16.7508 -3.67571
ltoes -32.1087
104
root -9.40339 17.5482 3.07946 -1.15018 71.0322 -7.73234
lowerback 4.15209 1.80224 5.64988
upperback -0.681201 2.78297 1.97648
thorax -2.86585 1.31961 -1.30284
lowerneck -22.8318 0.508716 1.47127
upperneck 36.9351 -0.247131 2.96026
head 17.4472 0.858538 1.13183
rclavicle -4.55217e-014 -1.74931e-014
rhumerus -41.1697 -17.9229 -67.3071
rradius 20.833
rwrist 9.01741
rhand -17.6342 19.4567
rfingers 7.12502
rthumb 8.62336 -10.3472
lclavicle -4.55217e-014 -1.74931e-014
lhumerus -35.8574 16.1055 73.61
lradius 34.9281
lwrist 39.4934
lhand -17.2766 61.2658
lfingers 7.12502
lthumb -171.032 88.9449
rfemur -4.72892 14.8316 28.5061
rtibia 13.2581
rfoot -11.793 -29.9156
rtoes 0.807778
lfemur -24.7874 -0.85897 -10.125
ltibia 38.9313
lfoot -16.3525 -3.76902
ltoes -31.6369
105
root -9.3339 17.5592 3.11215 -0.598406 70.6693 -7.15788
lowerback 4.06894 1.91596 5.66878
upperback -0.741825 2.9252 1.83067
thorax -2.86424 1.38689 -1.46952
lowerneck -22.8 0.547408 1.5532
upperneck 37.2627 -0.244513 3.06212
head 17.6199 0.899116 1.17685
rclavicle -2.37548e-014 1.35174e-014
rhumerus -40.9475 -18.2444 -67.2784
rradius 20.946
rwrist 9.46511
rhand -17.5789 19.6622
rfingers 7.12502
rthumb 8.67677 -10.1395
lclavicle -2.37548e-014 1.35174e-014
lhumerus -36.0417 16.2155 73.2304
lradius 35.8064
lwrist 40.1127
lhand -17.0811 61.4228
lfingers 7.12502
lthumb -170.843 88.796
rfemur -4.06563 15.2621 28.4441
rtibia 12.5144
rfoot -11.2515 -29.9661
rtoes 0.447003
lfemur -25.5143 -0.753822 -10.27
ltibia 38.2168
lfoot -15.8147 -3.32813
ltoes -30.9765
106
root -9.26508 17.5729 3.14158 0.0214149 70.3264 -6.49152
lowerback 4.10944 1.97202 5.63104
upperback -0.824859 2.99843 1.69048
thorax -2.96244 1.41777 -1.6006
lowerneck -22.7659 0.630579 1.57029
upperneck 37.5496 -0.158095 3.18879
head 17.7697 0.965456 1.26165
rclavicle 3.39922e-014 0
rhumerus -40.6833 -18.5648 -67.207
rradius 21.1755
rwrist 9.5458
rhand -17.6184 19.8795
rfingers 7.12502
rthumb 8.63856 -9.92375
lclavicle 3.39922e-014 0
lhumerus -36.2161 16.4999 72.7525
lradius 36.5071
lwrist 40.5027
lhand -17.0154 61.3108
lfingers 7.12502
lthumb -170.779 88.9108
rfemur -3.28882 15.6619 28.3308
rtibia 11.5678
rfoot -10.6393 -29.9913
rtoes 0.0900806
lfemur -26.146 -0.913396 -10.4189
ltibia 37.1163
lfoot -15.4947 -2.6493
ltoes -30.0603
107
root -9.19535 17.5843 3.1695 0.511065 70.0395 -5.93025
lowerback 4.21495 1.98632 5.59678
upperback -0.897211 3.02077 1.55904
thorax -3.08983 1.42277 -1.72435
lowerneck -22.751 0.719792 1.66588
upperneck 37.793 -0.0269939 3.13523
head 17.8998 1.03133 1.25755
rclavicle -1.87852e-014 -2.70347e-014
rhumerus -40.3374 -18.4069 -67.4764
rradius 21.6612
rwrist 8.83606
rhand -17.8902 19.8179
rfingers 7.12502
rthumb 8.37627 -9.99598
lclavicle -1.87852e-014 -2.70347e-014
lhumerus -36.4147 16.5656 72.2961
lradius 37.2376
lwrist 40.9782
lhand -17.2325 61.3824
lfingers 7.12502
lthumb -170.989 88.8301
rfemur -2.34895 15.9988 28.2511
rtibia 10.3693
rfoot -10.0408 -30.0019
rtoes -0.171927
lfemur -26.723 -1.30147 -10.4876
ltibia 35.7619
lfoot -15.3698 -1.82689
ltoes -28.8384
108
root -9.12234 17.5964 3.19635 0.942799 69.7585 -5.46528
lowerback 4.25659 1.9807 5.54378
upperback -0.954223 3.01146 1.46187
thorax -3.1703 1.41444 -1.79756
lowerneck -22.7276 0.808022 1.77332
upperneck 37.9635 0.152105 2.94051
head 17.9862 1.09334 1.1926
rclavicle 3.71727e-014 -2.8625e-014
rhumerus -39.8882 -18.0579 -67.856
rradius 22.3007
rwrist 7.72558
rhand -17.9649 19.7295
rfingers 7.12502
rthumb 8.30421 -10.0873
lclavicle 3.71727e-014 -2.8625e-014
lhumerus -36.6041 16.5207 71.8505
lradius 37.9243
lwrist 41.2093
lhand -17.389 61.6222
lfingers 7.12502
lthumb -171.14 88.5838
rfemur -1.25728 15.4688 28.2053
rtibia 8.80186
rfoot -9.33859 -29.1763
rtoes -0.963123
lfemur -27.3261 -1.84413 -10.4751
ltibia 34.2845
lfoot -15.17 -0.818603
ltoes -27.4171
109
root -9.04718 17.609 3.22276 1.14926 69.4746 -5.25831
lowerback 4.31431 1.97141 5.5265
upperback -1.01929 3.00347 1.4221
thorax -3.26963 1.40638 -1.83243
lowerneck -22.6964 0.881038 1.78202
upperneck 38.0639 0.330437 2.78882
head 18.0314 1.14435 1.1618
rclavicle 2.03754e-015 -1.27222e-014
rhumerus -39.41 -17.7427 -68.1299
rradius 23.0167
rwrist 6.55983
rhand -17.4438 19.9653
rfingers 7.12502
rthumb 8.80713 -9.83093
lclavicle 2.03754e-015 -1.27222e-014
lhumerus -36.6542 16.684 71.3822
lradius 38.2505
lwrist 40.8978
lhand -17.4926 61.7186
lfingers 7.12502
lthumb -171.24 88.4832
rfemur 0.139253 14.9409 28.2
rtibia 6.57624
rfoot -8.44764 -28.2955
rtoes -0.929702
lfemur -27.9601 -2.40202 -10.3491
ltibia 32.7882
lfoot -14.6329 0.30406
ltoes -26.5135
110
root -8.97069 17.6188 3.25106 0.939419 69.2077 -5.45683
lowerback 4.44765 1.96877 5.61146
upperback -1.07369 3.01722 1.42127
thorax -3.39633 1.4071 -1.88829
lowerneck -22.7276 0.930453 1.74773
upperneck 38.1619 0.455543 2.71379
head 18.0927 1.17895 1.16359
rclavicle -3.1408e-014 1.98785e-014
rhumerus -38.9665 -17.1252 -68.5637
rradius 23.9742
rwrist 5.18437
rhand -16.6805 20.0872
rfingers 7.12502
rthumb 9.5436 -9.67668
lclavicle -3.1408e-014 1.98785e-014
lhumerus -36.5803 16.9172 70.9051
lradius 38.3431
lwrist 40.3814
lhand -17.7734 61.8591
lfingers 7.12502
lthumb -171.511 88.3316
rfemur 2.74026 14.3925 28.2698
rtibia 2.03003
rfoot -6.71051 -27.1675
rtoes 0.70685
lfemur -28.5969 -2.94691 -10.0508
ltibia 31.3536
lfoot -13.8106 1.3801
ltoes -26.235
111
root -8.89049 17.6257 3.27996 0.56743 68.9661 -5.82846
lowerback 4.51759 1.93754 5.71275
upperback -1.0994 2.98883 1.43569
thorax -3.46063 1.38891 -1.93139
lowerneck -22.7344 0.99643 1.76856
upperneck 38.22 0.586152 2.62499
head 18.1258 1.22046 1.14845
rclavicle -1.30701e-014 0
rhumerus -38.524 -16.1854 -69.1978
rradius 25.1442
rwrist 3.82509
rhand -16.775 19.4607
rfingers 7.12502
rthumb 9.45244 -10.3073
lclavicle -1.30701e-014 0
lhumerus -36.448 17.029 70.4106
lradius 38.3357
lwrist 39.8944
lhand -17.7219 62.0565
lfingers 7.12502
lthumb -171.461 88.1362
rfemur 4.09398 13.8211 28.4136
rtibia 1.74931e-014
rfoot -6.18107 -26.3166
rtoes 1.35669
lfemur -29.2536 -3.48268 -9.67414
ltibia 30.0084
lfoot -13.1217 2.42241
ltoes -26.8665
112
root -8.80247 17.6295 3.31229 -0.0750698 68.7316 -6.41303
lowerback 4.61241 1.89346 5.85017
upperback -1.11056 2.94745 1.46044
thorax -3.52383 1.36388 -1.98365
lowerneck -22.6498 1.11084 1.93829
upperneck 38.2185 0.766458 2.44536
head 18.1029 1.28934 1.07186
rclavicle -2.45499e-014 -3.97569e-015
rhumerus -38.1284 -15.2899 -69.7861
rradius 26.3115
rwrist 2.88281
rhand -17.9554 18.5185
rfingers 7.12502
rthumb 8.3134 -11.2979
lclavicle -2.45499e-014 -3.97569e-015
lhumerus -36.2492 16.9755 69.9452
lradius 38.2125
lwrist 39.4836
lhand -17.5892 62.147
lfingers 7.12502
lthumb -171.333 88.0509
rfemur 4.51749 13.2305 28.7045
rtibia 2.22639e-014
rfoot -6.49194 -25.6719
rtoes 0.561848
lfemur -29.8008 -4.09726 -9.17412
ltibia 28.7205
lfoot -12.7634 3.49822
ltoes -27.99
113
root -8.70807 17.6335 3.34277 -0.437509 68.5018 -6.71808
lowerback 4.6874 1.84726 5.87797
upperback -1.10781 2.89367 1.47054
thorax -3.56665 1.33549 -1.98808
lowerneck -22.5857 1.25682 2.12419
upperneck 38.1624 0.994922 2.23821
head 18.0553 1.37354 0.988218
rclavicle -6.21202e-015 5.1684e-014
rhumerus -37.664 -14.4518 -70.2245
rradius 27.349
rwrist 2.2256
rhand -18.909 18.1466
rfingers 7.12502
rthumb 7.393 -11.7042
lclavicle -6.21202e-015 5.1684e-014
lhumerus -36.0289 16.8364 69.601
lradius 38.1396
lwrist 39.1641
lhand -17.8445 62.2774
lfingers 7.12502
lthumb -171.58 87.9105
rfemur 4.95153 12.6369 28.8561
rtibia 1.11319e-014
rfoot -6.97463 -25.0112
rtoes 0.467221
lfemur -30.3298 -4.86557 -8.73177
ltibia 27.5032
lfoot -12.6731 4.58567
ltoes -28.9059
